<svg width="192" height="54" viewBox="0 0 192 54" fill="none" xmlns="http://www.w3.org/2000/svg">
<path d="M28.5189 22.756C29.1189 21.82 29.9469 21.064 31.0029 20.488C32.0589 19.912 33.2949 19.624 34.7109 19.624C36.3669 19.624 37.8669 20.044 39.2109 20.884C40.5549 21.724 41.6109 22.924 42.3789 24.484C43.1709 26.044 43.5669 27.856 43.5669 29.92C43.5669 31.984 43.1709 33.808 42.3789 35.392C41.6109 36.952 40.5549 38.164 39.2109 39.028C37.8669 39.868 36.3669 40.288 34.7109 40.288C33.3189 40.288 32.0829 40 31.0029 39.424C29.9469 38.848 29.1189 38.104 28.5189 37.192V49.576H22.3629V19.912H28.5189V22.756ZM37.3029 29.92C37.3029 28.384 36.8709 27.184 36.0069 26.32C35.1669 25.432 34.1229 24.988 32.8749 24.988C31.6509 24.988 30.6069 25.432 29.7429 26.32C28.9029 27.208 28.4829 28.42 28.4829 29.956C28.4829 31.492 28.9029 32.704 29.7429 33.592C30.6069 34.48 31.6509 34.924 32.8749 34.924C34.0989 34.924 35.1429 34.48 36.0069 33.592C36.8709 32.68 37.3029 31.456 37.3029 29.92ZM45.5725 29.92C45.5725 27.856 45.9565 26.044 46.7245 24.484C47.5165 22.924 48.5845 21.724 49.9285 20.884C51.2725 20.044 52.7725 19.624 54.4285 19.624C55.8445 19.624 57.0805 19.912 58.1365 20.488C59.2165 21.064 60.0445 21.82 60.6205 22.756V19.912H66.7765V40H60.6205V37.156C60.0205 38.092 59.1805 38.848 58.1005 39.424C57.0445 40 55.8085 40.288 54.3925 40.288C52.7605 40.288 51.2725 39.868 49.9285 39.028C48.5845 38.164 47.5165 36.952 46.7245 35.392C45.9565 33.808 45.5725 31.984 45.5725 29.92ZM60.6205 29.956C60.6205 28.42 60.1885 27.208 59.3245 26.32C58.4845 25.432 57.4525 24.988 56.2285 24.988C55.0045 24.988 53.9605 25.432 53.0965 26.32C52.2565 27.184 51.8365 28.384 51.8365 29.92C51.8365 31.456 52.2565 32.68 53.0965 33.592C53.9605 34.48 55.0045 34.924 56.2285 34.924C57.4525 34.924 58.4845 34.48 59.3245 33.592C60.1885 32.704 60.6205 31.492 60.6205 29.956ZM70.006 29.956C70.006 27.868 70.426 26.044 71.266 24.484C72.13 22.924 73.318 21.724 74.83 20.884C76.366 20.044 78.118 19.624 80.086 19.624C82.606 19.624 84.706 20.284 86.386 21.604C88.09 22.924 89.206 24.784 89.734 27.184H83.182C82.63 25.648 81.562 24.88 79.978 24.88C78.85 24.88 77.95 25.324 77.278 26.212C76.606 27.076 76.27 28.324 76.27 29.956C76.27 31.588 76.606 32.848 77.278 33.736C77.95 34.6 78.85 35.032 79.978 35.032C81.562 35.032 82.63 34.264 83.182 32.728H89.734C89.206 35.08 88.09 36.928 86.386 38.272C84.682 39.616 82.582 40.288 80.086 40.288C78.118 40.288 76.366 39.868 74.83 39.028C73.318 38.188 72.13 36.988 71.266 35.428C70.426 33.868 70.006 32.044 70.006 29.956ZM101.199 40.288C99.4469 40.288 97.8869 39.988 96.5189 39.388C95.1509 38.788 94.0709 37.972 93.2789 36.94C92.4869 35.884 92.0429 34.708 91.9469 33.412H98.0309C98.1029 34.108 98.4269 34.672 99.0029 35.104C99.5789 35.536 100.287 35.752 101.127 35.752C101.895 35.752 102.483 35.608 102.891 35.32C103.323 35.008 103.539 34.612 103.539 34.132C103.539 33.556 103.239 33.136 102.639 32.872C102.039 32.584 101.067 32.272 99.7229 31.936C98.2829 31.6 97.0829 31.252 96.1229 30.892C95.1629 30.508 94.3349 29.92 93.6389 29.128C92.9429 28.312 92.5949 27.22 92.5949 25.852C92.5949 24.7 92.9069 23.656 93.5309 22.72C94.1789 21.76 95.1149 21.004 96.3389 20.452C97.5869 19.9 99.0629 19.624 100.767 19.624C103.287 19.624 105.267 20.248 106.707 21.496C108.171 22.744 109.011 24.4 109.227 26.464H103.539C103.443 25.768 103.131 25.216 102.603 24.808C102.099 24.4 101.427 24.196 100.587 24.196C99.8669 24.196 99.3149 24.34 98.9309 24.628C98.5469 24.892 98.3549 25.264 98.3549 25.744C98.3549 26.32 98.6549 26.752 99.2549 27.04C99.8789 27.328 100.839 27.616 102.135 27.904C103.623 28.288 104.835 28.672 105.771 29.056C106.707 29.416 107.523 30.016 108.219 30.856C108.939 31.672 109.311 32.776 109.335 34.168C109.335 35.344 108.999 36.4 108.327 37.336C107.679 38.248 106.731 38.968 105.483 39.496C104.259 40.024 102.831 40.288 101.199 40.288Z" fill="white"/>
<rect x="139" y="2" width="16" height="17" fill="#FF0F7B"/>
<rect x="122" y="19" width="17" height="16" fill="#FF0F7B"/>
<rect x="155" y="19" width="17" height="16" fill="#FAA143"/>
<rect x="139" y="35" width="16" height="17" fill="#FAA143"/>
</svg>
